<svg id="Img" xmlns="http://www.w3.org/2000/svg" xmlns:xlink="http://www.w3.org/1999/xlink" viewBox="0 0 594.7 288.17"><defs><style>.cls-1{fill:#5c3f2e;}.cls-2{fill:url(#Degradado_sin_nombre_10);}.cls-3{fill:url(#Degradado_sin_nombre_24);}.cls-4{fill:url(#Degradado_sin_nombre_24-2);}.cls-5{fill:url(#Degradado_sin_nombre_24-3);}.cls-6{fill:url(#Degradado_sin_nombre_24-4);}.cls-7{fill:url(#Degradado_sin_nombre_24-5);}.cls-8{fill:url(#Degradado_sin_nombre_24-6);}.cls-9{fill:#b11219;}.cls-10{fill:#dc7f37;}.cls-11{fill:#960e53;}.cls-12{fill:#9f5029;}</style><linearGradient id="Degradado_sin_nombre_10" x1="486.54" y1="234.81" x2="486.54" y2="129.51" gradientUnits="userSpaceOnUse"><stop offset="0" stop-color="#9f5029"/><stop offset="0.19" stop-color="#a55629" stop-opacity="0.99"/><stop offset="0.43" stop-color="#b56829" stop-opacity="0.98"/><stop offset="0.68" stop-color="#d18629" stop-opacity="0.95"/><stop offset="0.95" stop-color="#f7af29" stop-opacity="0.91"/><stop offset="1" stop-color="#ffb729" stop-opacity="0.9"/></linearGradient><linearGradient id="Degradado_sin_nombre_24" x1="239.95" y1="237.6" x2="239.95" y2="132.31" gradientUnits="userSpaceOnUse"><stop offset="0" stop-color="#a6243c"/><stop offset="0.26" stop-color="#b03335" stop-opacity="0.98"/><stop offset="0.75" stop-color="#c95a23" stop-opacity="0.93"/><stop offset="1" stop-color="#d87218" stop-opacity="0.9"/></linearGradient><linearGradient id="Degradado_sin_nombre_24-2" x1="342.13" y1="237.6" x2="342.13" y2="132.31" xlink:href="#Degradado_sin_nombre_24"/><linearGradient id="Degradado_sin_nombre_24-3" x1="442.77" y1="237.6" x2="442.77" y2="132.31" xlink:href="#Degradado_sin_nombre_24"/><linearGradient id="Degradado_sin_nombre_24-4" x1="43.53" y1="237.6" x2="43.53" y2="132.31" xlink:href="#Degradado_sin_nombre_24"/><linearGradient id="Degradado_sin_nombre_24-5" x1="137.76" y1="237.6" x2="137.76" y2="132.31" xlink:href="#Degradado_sin_nombre_24"/><linearGradient id="Degradado_sin_nombre_24-6" x1="540.36" y1="237.6" x2="540.36" y2="132.31" xlink:href="#Degradado_sin_nombre_24"/></defs><polygon class="cls-1" points="485.72 228.99 487.35 228.99 486.39 227.4 485.72 228.99"/><polygon class="cls-2" points="485.72 228.99 487.35 228.99 486.39 227.4 485.72 228.99"/><polygon class="cls-3" points="257.25 183.76 220.51 136.02 194.79 136.02 194.79 228.99 222.77 228.99 222.77 181.51 259.37 228.99 285.1 228.99 285.1 136.02 257.25 136.02 257.25 183.76"/><path class="cls-4" d="M368.39,140.26a58.71,58.71,0,0,0-52.52-.06,45.39,45.39,0,0,0-18.23,17.17,47.61,47.61,0,0,0-6.57,24.93,48.32,48.32,0,0,0,6.57,25.07,46.11,46.11,0,0,0,18.23,17.44,57.88,57.88,0,0,0,52.52,0,46.24,46.24,0,0,0,18.23-17.44,48.42,48.42,0,0,0,6.57-25.07,47.47,47.47,0,0,0-6.57-24.8A46.1,46.1,0,0,0,368.39,140.26Zm-9.29,54a20.35,20.35,0,0,1-6.89,8.29,16.82,16.82,0,0,1-9.68,3,17.47,17.47,0,0,1-9.89-3,21.71,21.71,0,0,1-7.29-8.29,25.1,25.1,0,0,1-2.72-11.73,24.68,24.68,0,0,1,2.72-11.67,21.38,21.38,0,0,1,7.29-8.16,17.78,17.78,0,0,1,9.89-3,17.13,17.13,0,0,1,9.68,2.91,20,20,0,0,1,6.89,8.16,26.71,26.71,0,0,1,2.53,11.74A27.17,27.17,0,0,1,359.1,194.24Z"/><path class="cls-5" d="M469.05,198.75A28.92,28.92,0,0,0,480,186.88a38.68,38.68,0,0,0,3.78-17.57q0-15.92-10.35-24.6T444.12,136h-45v93h30.78V204.85h11.53L452.6,229h33.12l.67-1.59Zm-17.18-20.23q-2.72,3-7.75,3H429.93V159.36h14.19q5,0,7.75,2.85t2.72,8C454.59,173.77,453.68,176.54,451.87,178.52Z"/><path class="cls-6" d="M69.66,175.67a141.51,141.51,0,0,0-16.51-5.57,73.68,73.68,0,0,1-11.61-3.84q-3.65-1.72-3.65-4.91,0-4.11,5.71-4.11t15.12,3.31a103,103,0,0,1,16.84,7.69L86.7,144.77a71,71,0,0,0-18.76-8.09,79.76,79.76,0,0,0-21.69-3.05,54.8,54.8,0,0,0-20.95,3.71A30.91,30.91,0,0,0,11.37,148a27.49,27.49,0,0,0-4.9,16.25q0,9.54,4.77,15.25a29.18,29.18,0,0,0,11.34,8.42A124.27,124.27,0,0,0,39,193.18,67.75,67.75,0,0,1,50.83,197c2.52,1.19,3.77,2.85,3.77,5a4.3,4.3,0,0,1-2,3.91,10,10,0,0,1-5.44,1.26q-7.17,0-17.77-4.31a62.31,62.31,0,0,1-17.64-10.41L.36,215.6a71.38,71.38,0,0,0,21.69,11.07,80.74,80.74,0,0,0,24.86,4,56.15,56.15,0,0,0,19.76-3.31A30.88,30.88,0,0,0,80.8,217.25Q86,210.43,86,200.34q0-9.81-4.91-15.85A29.72,29.72,0,0,0,69.66,175.67Z"/><path class="cls-7" d="M164,140.26A55,55,0,0,0,137.76,134a55.22,55.22,0,0,0-26.26,6.17,45.55,45.55,0,0,0-18.24,17.17A47.8,47.8,0,0,0,86.7,182.3a48.5,48.5,0,0,0,6.56,25.07,46.26,46.26,0,0,0,18.24,17.44,54.37,54.37,0,0,0,26.26,6.3,54.43,54.43,0,0,0,26.26-6.3,46.17,46.17,0,0,0,18.23-17.44,48.42,48.42,0,0,0,6.57-25.07,47.47,47.47,0,0,0-6.57-24.8A46,46,0,0,0,164,140.26Zm-9.28,54a20.37,20.37,0,0,1-6.9,8.29,16.82,16.82,0,0,1-9.68,3,17.41,17.41,0,0,1-9.88-3,21.65,21.65,0,0,1-7.3-8.29,25.1,25.1,0,0,1-2.72-11.73A24.68,24.68,0,0,1,121,170.77a21.33,21.33,0,0,1,7.3-8.16,17.73,17.73,0,0,1,9.88-3,17.13,17.13,0,0,1,9.68,2.91,20,20,0,0,1,6.9,8.16,26.85,26.85,0,0,1,2.51,11.74A27.3,27.3,0,0,1,154.74,194.24Z"/><path class="cls-8" d="M525,136,486.39,227.4l1,1.59h29.94l4.77-13.13h34.88L561.58,229h32.76l-37.79-93Zm5,57.82,9.81-27.19,9.55,27.19Z"/><rect class="cls-9" x="268.38" y="12.64" width="6.83" height="6.98"/><polygon class="cls-10" points="83.08 13.65 90.06 13.65 90.06 6.83 97.04 6.83 97.04 0 90.05 0 90.05 6.83 83.07 6.83 83.07 13.65 76.1 13.65 76.1 20.48 83.08 20.48 83.08 13.65"/><polygon class="cls-10" points="62.14 34.14 69.11 34.14 69.11 27.32 76.1 27.32 76.1 20.48 69.11 20.48 69.11 27.31 62.13 27.31 62.13 34.13 55.15 34.13 55.15 40.96 62.14 40.96 62.14 34.14"/><rect class="cls-10" x="97.05" y="75.11" width="6.98" height="6.83"/><rect class="cls-10" x="104.03" y="68.27" width="6.98" height="6.83"/><polygon class="cls-10" points="131.96 47.79 124.98 47.79 124.98 54.61 118 54.61 118 61.44 124.98 61.44 124.98 54.62 131.96 54.62 131.96 47.8 138.94 47.8 138.94 40.97 131.96 40.97 131.96 47.79"/><rect class="cls-10" x="90.07" y="81.93" width="6.98" height="6.83"/><rect class="cls-10" x="76.1" y="54.61" width="6.98" height="6.83"/><polygon class="cls-10" points="69.11 68.28 62.13 68.28 62.13 75.1 69.11 75.1 69.11 68.28 76.1 68.28 76.1 61.45 69.11 61.45 69.11 68.28"/><rect class="cls-10" x="55.15" y="75.1" width="6.99" height="6.83"/><polygon class="cls-10" points="97.04 47.79 97.04 40.96 90.05 40.96 90.05 47.79 83.07 47.79 83.07 54.61 90.06 54.61 90.06 47.79 97.04 47.79"/><polygon class="cls-10" points="104.03 116.07 97.05 116.07 97.05 122.9 104.04 122.9 104.04 116.07 111.01 116.07 111.01 109.24 104.03 109.24 104.03 116.07"/><polygon class="cls-10" points="131.96 88.75 124.98 88.75 124.98 95.58 118 95.58 118 102.4 111.01 102.4 111.01 109.23 118 109.23 118 102.41 124.98 102.41 124.98 95.58 131.96 95.58 131.96 88.76 138.94 88.76 138.94 81.93 131.96 81.93 131.96 88.75"/><rect class="cls-10" x="90.07" y="122.89" width="6.98" height="6.84"/><polygon class="cls-10" points="490.67 13.65 497.65 13.65 497.65 6.83 504.63 6.83 504.63 0 497.64 0 497.64 6.83 490.66 6.83 490.66 13.65 483.69 13.65 483.69 20.48 490.67 20.48 490.67 13.65"/><polygon class="cls-10" points="469.73 34.14 476.7 34.14 476.7 27.32 483.69 27.32 483.69 20.48 476.7 20.48 476.7 27.31 469.72 27.31 469.72 34.13 462.74 34.13 462.74 40.96 469.73 40.96 469.73 34.14"/><rect class="cls-10" x="504.64" y="75.11" width="6.98" height="6.83"/><rect class="cls-10" x="511.62" y="68.27" width="6.98" height="6.83"/><polygon class="cls-10" points="539.54 40.97 539.54 47.79 532.57 47.79 532.57 54.61 525.59 54.61 525.59 61.44 532.57 61.44 532.57 54.62 539.54 54.62 539.54 47.8 546.53 47.8 546.53 40.97 539.54 40.97"/><rect class="cls-10" x="497.66" y="81.93" width="6.98" height="6.83"/><rect class="cls-10" x="483.69" y="54.61" width="6.98" height="6.83"/><polygon class="cls-10" points="476.7 68.28 469.72 68.28 469.72 75.1 476.7 75.1 476.7 68.28 483.69 68.28 483.69 61.45 476.7 61.45 476.7 68.28"/><rect class="cls-10" x="462.74" y="75.1" width="6.99" height="6.83"/><polygon class="cls-10" points="504.63 47.79 504.63 40.96 497.64 40.96 497.64 47.79 490.66 47.79 490.66 54.61 497.65 54.61 497.65 47.79 504.63 47.79"/><polygon class="cls-10" points="511.62 116.07 504.64 116.07 504.64 122.9 511.63 122.9 511.63 116.07 518.6 116.07 518.6 109.24 511.62 109.24 511.62 116.07"/><polygon class="cls-10" points="539.54 88.75 532.57 88.75 532.57 95.58 525.59 95.58 525.59 102.4 518.6 102.4 518.6 109.23 525.59 109.23 525.59 102.41 532.57 102.41 532.57 95.58 539.54 95.58 539.54 88.76 546.53 88.76 546.53 81.93 539.54 81.93 539.54 88.75"/><rect class="cls-10" x="497.66" y="122.89" width="6.98" height="6.84"/><rect class="cls-10" x="164.99" y="49.99" width="6.83" height="6.98"/><rect class="cls-10" x="171.82" y="43.01" width="6.83" height="6.98"/><rect class="cls-10" x="185.47" y="29.04" width="6.83" height="6.98"/><rect class="cls-10" x="178.65" y="36.02" width="6.83" height="6.98"/><polygon class="cls-10" points="199.13 22.06 192.3 22.06 192.3 29.03 199.13 29.03 199.13 22.06 205.96 22.06 205.96 15.08 199.13 15.08 199.13 22.06"/><polygon class="cls-10" points="428.75 49.86 421.93 49.86 421.93 56.84 428.75 56.84 428.75 63.82 435.58 63.82 435.58 56.83 428.75 56.83 428.75 49.86"/><polygon class="cls-10" points="415.09 35.9 408.26 35.9 408.26 28.92 401.44 28.92 401.44 21.93 394.62 21.93 394.62 14.95 387.79 14.95 387.79 21.94 394.62 21.94 394.62 28.92 401.43 28.92 401.43 35.9 408.26 35.9 408.26 42.88 415.09 42.88 415.09 49.86 421.92 49.86 421.92 42.88 415.09 42.88 415.09 35.9"/><rect class="cls-10" x="234.24" y="47.55" width="6.83" height="6.98"/><rect class="cls-10" x="254.73" y="26.61" width="6.83" height="6.98"/><polygon class="cls-10" points="247.9 40.56 241.07 40.56 241.07 47.55 247.9 47.55 247.9 40.56 254.73 40.56 254.73 33.59 247.9 33.59 247.9 40.56"/><rect class="cls-10" x="261.55" y="19.62" width="6.83" height="6.98"/><rect class="cls-10" x="302.54" y="61.52" width="6.83" height="6.98"/><rect class="cls-10" x="295.71" y="68.51" width="6.83" height="6.98"/><rect class="cls-10" x="282.05" y="82.46" width="6.83" height="6.98"/><polygon class="cls-10" points="275.22 96.43 275.21 96.43 275.21 96.42 268.39 96.42 268.39 103.4 268.4 103.4 275.21 103.4 275.23 103.4 275.23 96.43 282.06 96.43 282.06 89.45 275.22 89.45 275.22 96.43"/><rect class="cls-10" x="275.2" y="47.55" width="6.83" height="6.98"/><polygon class="cls-10" points="302.53 33.59 302.53 26.61 295.69 26.61 295.69 33.58 288.87 33.58 288.87 33.59 288.87 40.56 282.04 40.56 282.04 47.55 288.87 47.55 288.87 40.56 295.7 40.56 295.7 33.59 295.7 33.59 302.53 33.59"/><rect class="cls-10" x="302.52" y="19.62" width="6.83" height="6.98"/><rect class="cls-10" x="343.5" y="61.52" width="6.83" height="6.98"/><polygon class="cls-10" points="336.67 75.48 329.84 75.48 329.84 82.46 323.01 82.46 323.01 89.44 329.85 89.44 329.85 82.46 336.67 82.46 336.67 75.48 343.5 75.48 343.5 68.51 336.67 68.51 336.67 75.48"/><polygon class="cls-10" points="316.19 96.43 316.18 96.43 316.18 96.42 309.35 96.42 309.35 103.4 309.36 103.4 316.18 103.4 316.2 103.4 316.2 96.43 323.02 96.43 323.02 89.45 316.19 89.45 316.19 96.43"/><polygon class="cls-11" points="104.03 6.81 97.05 6.81 97.05 13.64 104.03 13.64 104.03 20.48 111.01 20.48 111.01 13.64 104.03 13.64 104.03 6.81"/><polygon class="cls-11" points="118 20.48 111.02 20.48 111.02 27.31 118 27.31 118 34.13 124.97 34.13 124.97 27.3 118 27.3 118 20.48"/><rect class="cls-11" x="124.98" y="34.13" width="6.98" height="6.83"/><rect class="cls-11" x="83.07" y="75.11" width="6.98" height="6.83"/><rect class="cls-11" x="76.1" y="68.27" width="6.98" height="6.83"/><polygon class="cls-11" points="55.15 54.62 62.13 54.62 62.13 61.45 69.11 61.45 69.11 54.62 62.13 54.62 62.13 47.79 55.15 47.79 55.15 40.97 48.17 40.97 48.17 47.8 55.15 47.8 55.15 54.62"/><rect class="cls-11" x="97.05" y="47.78" width="6.98" height="6.83"/><rect class="cls-11" x="104.03" y="54.61" width="6.98" height="6.83"/><polygon class="cls-11" points="118 61.44 111.02 61.44 111.02 68.27 118 68.27 118 75.09 124.97 75.09 124.97 68.26 118 68.26 118 61.44"/><rect class="cls-11" x="124.98" y="75.09" width="6.98" height="6.83"/><polygon class="cls-11" points="83.07 109.24 76.1 109.24 76.1 116.07 83.07 116.07 83.07 122.91 90.06 122.91 90.06 116.07 83.07 116.07 83.07 109.24"/><polygon class="cls-11" points="69.11 95.58 62.13 95.58 62.13 88.76 55.15 88.76 55.15 81.93 48.17 81.93 48.17 88.76 55.15 88.76 55.15 95.59 62.13 95.59 62.13 102.42 69.11 102.42 69.11 109.24 76.09 109.24 76.09 102.41 69.11 102.41 69.11 95.58"/><polygon class="cls-11" points="511.62 6.81 504.64 6.81 504.64 13.64 511.62 13.64 511.62 20.48 518.6 20.48 518.6 13.64 511.62 13.64 511.62 6.81"/><polygon class="cls-11" points="525.59 20.48 518.61 20.48 518.61 27.31 525.59 27.31 525.59 34.13 532.56 34.13 532.56 27.3 525.59 27.3 525.59 20.48"/><rect class="cls-11" x="532.57" y="34.13" width="6.98" height="6.83"/><rect class="cls-11" x="490.66" y="75.11" width="6.98" height="6.83"/><rect class="cls-11" x="483.69" y="68.27" width="6.98" height="6.83"/><polygon class="cls-11" points="462.74 54.62 469.72 54.62 469.72 61.45 476.7 61.45 476.7 54.62 469.72 54.62 469.72 47.79 462.74 47.79 462.74 40.97 455.76 40.97 455.76 47.8 462.74 47.8 462.74 54.62"/><rect class="cls-11" x="504.64" y="47.78" width="6.98" height="6.83"/><rect class="cls-11" x="511.62" y="54.61" width="6.98" height="6.83"/><polygon class="cls-11" points="525.59 61.44 518.61 61.44 518.61 68.27 525.59 68.27 525.59 75.09 532.56 75.09 532.56 68.26 525.59 68.26 525.59 61.44"/><rect class="cls-11" x="532.57" y="75.09" width="6.98" height="6.83"/><polygon class="cls-11" points="490.66 109.24 483.69 109.24 483.69 116.07 490.66 116.07 490.66 122.91 497.65 122.91 497.65 116.07 490.66 116.07 490.66 109.24"/><polygon class="cls-11" points="476.7 95.58 469.72 95.58 469.72 88.76 462.74 88.76 462.74 81.93 455.76 81.93 455.76 88.76 462.74 88.76 462.74 95.59 469.72 95.59 469.72 102.42 476.7 102.42 476.7 109.24 483.68 109.24 483.68 102.41 476.7 102.41 476.7 95.58"/><polygon class="cls-11" points="199.13 91.89 192.32 91.89 192.32 84.9 185.49 84.9 185.49 77.91 178.66 77.91 178.66 70.94 171.83 70.94 171.83 77.91 178.66 77.91 178.66 84.9 185.48 84.9 185.48 91.89 192.3 91.89 192.3 98.86 199.13 98.86 199.13 105.84 205.96 105.84 205.96 98.86 199.13 98.86 199.13 91.89"/><polygon class="cls-11" points="165 56.98 158.17 56.98 158.17 63.96 164.99 63.96 164.99 70.94 171.83 70.94 171.83 63.96 165 63.96 165 56.98"/><rect class="cls-11" x="421.93" y="63.83" width="6.83" height="6.98"/><rect class="cls-11" x="415.1" y="70.82" width="6.83" height="6.98"/><polygon class="cls-11" points="408.26 84.78 401.44 84.78 401.44 91.75 408.27 91.75 408.27 84.78 415.09 84.78 415.09 77.8 408.26 77.8 408.26 84.78"/><polygon class="cls-11" points="394.62 98.74 387.79 98.74 387.79 105.72 394.62 105.72 394.62 98.74 401.45 98.74 401.45 91.77 394.62 91.77 394.62 98.74"/><rect class="cls-11" x="241.08" y="68.51" width="6.83" height="6.98"/><polygon class="cls-11" points="261.56 82.46 254.75 82.46 254.75 75.48 247.91 75.48 247.91 82.46 254.73 82.46 254.73 89.45 261.56 89.45 261.56 96.43 268.39 96.43 268.39 89.44 261.56 89.44 261.56 82.46"/><polygon class="cls-11" points="234.26 54.54 227.42 54.54 227.42 61.52 234.25 61.52 234.25 68.51 241.07 68.51 241.07 61.52 234.26 61.52 234.26 54.54"/><polygon class="cls-11" points="309.36 47.55 302.53 47.55 302.53 54.53 309.36 54.53 309.36 61.51 316.19 61.51 316.19 54.52 309.36 54.52 309.36 47.55"/><rect class="cls-11" x="295.7" y="40.56" width="6.83" height="6.99"/><polygon class="cls-11" points="282.05 19.62 275.22 19.62 275.22 12.64 268.39 12.64 268.39 19.62 275.22 19.62 275.22 26.6 282.04 26.6 282.04 33.58 288.87 33.58 288.87 26.6 282.05 26.6 282.05 19.62"/><rect class="cls-11" x="282.04" y="68.51" width="6.83" height="6.98"/><polygon class="cls-11" points="295.71 75.48 288.88 75.48 288.88 82.46 295.7 82.46 295.7 89.45 302.53 89.45 302.53 82.46 295.71 82.46 295.71 75.48"/><rect class="cls-11" x="302.53" y="89.44" width="6.83" height="6.99"/><polygon class="cls-11" points="275.21 54.54 268.39 54.54 268.39 61.52 275.21 61.52 275.21 68.51 282.04 68.51 282.04 61.52 275.21 61.52 275.21 54.54"/><polygon class="cls-11" points="350.32 47.55 343.5 47.55 343.5 40.56 336.67 40.56 336.67 47.55 343.5 47.55 343.5 54.53 350.31 54.53 350.31 61.51 357.15 61.51 357.15 54.52 350.32 54.52 350.32 47.55"/><polygon class="cls-11" points="329.84 33.58 329.84 26.6 323.01 26.6 323.01 19.62 316.19 19.62 316.19 12.64 309.36 12.64 309.36 19.62 316.18 19.62 316.18 26.6 323.01 26.6 323.01 33.58 329.84 33.58"/><rect class="cls-11" x="329.82" y="33.58" width="6.84" height="6.98"/><path class="cls-10" d="M0,252.54H17.9v1.65H9.79V274.7H8.09V254.19H0Z"/><path class="cls-10" d="M29.36,252.54V274.7h-1.7V252.54Z"/><path class="cls-10" d="M41.53,252.54H57v1.65H43.23V263H54.91v1.59H43.23v8.44H57v1.65H41.53Z"/><path class="cls-10" d="M77.62,252.54a8.67,8.67,0,0,1,3.24.57,7,7,0,0,1,2.4,1.54,6.65,6.65,0,0,1,1.5,2.28,7.18,7.18,0,0,1,.52,2.74,7.29,7.29,0,0,1-.35,2.24,7.13,7.13,0,0,1-1,2,6.5,6.5,0,0,1-1.6,1.58,7.72,7.72,0,0,1-2.18,1l5.9,8.18H84l-5.67-7.87a2,2,0,0,1-.34,0H69.42v7.84h-1.7V252.54Zm-8.2,1.59v11.14h8.14a7,7,0,0,0,2.6-.46,5.8,5.8,0,0,0,1.9-1.22,5,5,0,0,0,1.16-1.78,5.93,5.93,0,0,0,0-4.23,5.09,5.09,0,0,0-1.16-1.77,5.82,5.82,0,0,0-1.9-1.23,7,7,0,0,0-2.6-.45Z"/><path class="cls-10" d="M106.23,252.54a8.67,8.67,0,0,1,3.24.57,7,7,0,0,1,2.4,1.54,7,7,0,0,1,1.5,2.28,7.38,7.38,0,0,1,.52,2.74,7.29,7.29,0,0,1-.35,2.24,7.13,7.13,0,0,1-1,2,6.67,6.67,0,0,1-1.6,1.58,7.65,7.65,0,0,1-2.19,1l5.9,8.18h-2.07l-5.67-7.87a2,2,0,0,1-.34,0H98v7.84h-1.7V252.54ZM98,254.13v11.14h8.14a6.88,6.88,0,0,0,2.59-.46,5.6,5.6,0,0,0,1.9-1.22,4.93,4.93,0,0,0,1.17-1.78,5.93,5.93,0,0,0,0-4.23,5,5,0,0,0-1.17-1.77,5.62,5.62,0,0,0-1.9-1.23,6.89,6.89,0,0,0-2.59-.45Z"/><path class="cls-10" d="M134.26,252.54l10.31,22.16H142.7l-2.31-5h-14.1l-2.27,5h-1.9l10.3-22.16ZM127,268.11h12.61l-6.31-13.75Z"/><path class="cls-10" d="M168.28,252.54h8.78a11.21,11.21,0,0,1,4.52.86,9.48,9.48,0,0,1,3.27,2.36,10.26,10.26,0,0,1,2,3.51,13.63,13.63,0,0,1,.68,4.35,13.78,13.78,0,0,1-.68,4.36,10.12,10.12,0,0,1-2,3.52,9.18,9.18,0,0,1-3.27,2.34,11.21,11.21,0,0,1-4.52.86h-8.78Zm1.7,1.65v18.86h7a9.12,9.12,0,0,0,3.77-.73,7.88,7.88,0,0,0,2.77-2,8.65,8.65,0,0,0,1.71-3,12.12,12.12,0,0,0,0-7.47,8.61,8.61,0,0,0-1.71-3,7.9,7.9,0,0,0-2.77-2,9.29,9.29,0,0,0-3.77-.72Z"/><path class="cls-10" d="M198.24,252.54h15.43v1.65H199.94V263h11.69v1.59H199.94v8.44h13.73v1.65H198.24Z"/><path class="cls-10" d="M236.58,263.62a10.78,10.78,0,0,1,.95-4.48,11.77,11.77,0,0,1,2.57-3.65,12.52,12.52,0,0,1,3.8-2.47,12.11,12.11,0,0,1,9.21,0,12.28,12.28,0,0,1,3.8,2.47,11.42,11.42,0,0,1,2.56,3.65,11.12,11.12,0,0,1,0,8.95,11.42,11.42,0,0,1-2.56,3.65,12.11,12.11,0,0,1-3.8,2.47,12.11,12.11,0,0,1-9.21,0,12.34,12.34,0,0,1-3.8-2.47,11.77,11.77,0,0,1-2.57-3.65A10.7,10.7,0,0,1,236.58,263.62Zm5.81,0a5.89,5.89,0,0,0,.48,2.36,5.76,5.76,0,0,0,1.31,1.91,6.19,6.19,0,0,0,8.65,0,6.19,6.19,0,0,0,1.29-1.91,6,6,0,0,0,0-4.72,6.12,6.12,0,0,0-1.29-1.92,6.25,6.25,0,0,0-1.93-1.28,6.16,6.16,0,0,0-2.41-.47,6.07,6.07,0,0,0-2.37.47,6.3,6.3,0,0,0-1.94,1.28,5.7,5.7,0,0,0-1.31,1.92A5.86,5.86,0,0,0,242.39,263.62Z"/><path class="cls-10" d="M269.42,252.54h9.9a10.07,10.07,0,0,1,3.9.69,7.9,7.9,0,0,1,2.75,1.88,7.48,7.48,0,0,1,1.62,2.71,9.62,9.62,0,0,1,.54,3.21,10.15,10.15,0,0,1-.54,3.33A7.52,7.52,0,0,1,286,267.1a7.88,7.88,0,0,1-2.75,1.87,9.88,9.88,0,0,1-3.9.7h-4.15v5h-5.75Zm5.75,5.17v6.79H279a3,3,0,0,0,2.56-1,3.94,3.94,0,0,0,.75-2.46,4.79,4.79,0,0,0-.17-1.26,2.82,2.82,0,0,0-.58-1.08,2.63,2.63,0,0,0-1-.74,3.88,3.88,0,0,0-1.53-.27Z"/><path class="cls-10" d="M295.9,263.62a10.63,10.63,0,0,1,1-4.48,11.77,11.77,0,0,1,2.57-3.65,12.4,12.4,0,0,1,3.8-2.47,12.11,12.11,0,0,1,9.21,0,12.28,12.28,0,0,1,3.8,2.47,11.58,11.58,0,0,1,2.56,3.65,11.12,11.12,0,0,1,0,8.95,11.58,11.58,0,0,1-2.56,3.65,12.11,12.11,0,0,1-3.8,2.47,12.11,12.11,0,0,1-9.21,0,12.22,12.22,0,0,1-3.8-2.47,11.77,11.77,0,0,1-2.57-3.65A10.55,10.55,0,0,1,295.9,263.62Zm5.81,0a6,6,0,0,0,1.78,4.27,6.29,6.29,0,0,0,1.95,1.28,6.07,6.07,0,0,0,2.37.47,6.16,6.16,0,0,0,2.41-.47,6,6,0,0,0,3.22-3.19,6.16,6.16,0,0,0,0-4.72,6,6,0,0,0-1.3-1.92,6.06,6.06,0,0,0-4.33-1.75,6.07,6.07,0,0,0-2.37.47,6.47,6.47,0,0,0-1.95,1.28,6,6,0,0,0-1.78,4.28Z"/><path class="cls-10" d="M339.7,252.54a9.86,9.86,0,0,1,3.74.64,7.2,7.2,0,0,1,2.62,1.74,7.09,7.09,0,0,1,1.54,2.59,9.49,9.49,0,0,1,.5,3.12,9.61,9.61,0,0,1-.27,2.28A7.71,7.71,0,0,1,347,265a7.26,7.26,0,0,1-3.34,3l4.87,6.71h-6.88l-4.26-5.94h-2.94v5.94h-5.72V252.54Zm-5.24,5.17v5.91h4.92a4,4,0,0,0,1.47-.24,2.69,2.69,0,0,0,1-.64,2.54,2.54,0,0,0,.55-.94,3.78,3.78,0,0,0,.17-1.11,3.19,3.19,0,0,0-.72-2.13,3,3,0,0,0-2.45-.85Z"/><path class="cls-10" d="M356,252.54h19.74v5.51h-7V274.7H363V258.05h-7Z"/><path class="cls-10" d="M404.77,252.54V265a11.51,11.51,0,0,1-.67,4,9,9,0,0,1-2,3.21,9.12,9.12,0,0,1-3.24,2.14,11.71,11.71,0,0,1-4.43.78,11.84,11.84,0,0,1-4.46-.78,9,9,0,0,1-3.22-2.14,8.93,8.93,0,0,1-2-3.21,11.75,11.75,0,0,1-.66-4V252.54h5.75v12.13a5.32,5.32,0,0,0,1.16,3.69,4.33,4.33,0,0,0,3.39,1.28,4.43,4.43,0,0,0,3.44-1.28,5.27,5.27,0,0,0,1.17-3.69V252.54Z"/><path class="cls-10" d="M414.53,274.7V252.54h4.89l10,12.38V252.54h5.73V274.7H430.3l-10-12.36V274.7Z"/><path class="cls-10" d="M451,252.54V274.7h-5.76V252.54Z"/><path class="cls-10" d="M461.07,252.54h10.42a11.37,11.37,0,0,1,4.62.88,9.37,9.37,0,0,1,3.32,2.4,10.27,10.27,0,0,1,2,3.54,13.3,13.3,0,0,1,.68,4.26,13.48,13.48,0,0,1-.68,4.29,10.18,10.18,0,0,1-2,3.52,9.47,9.47,0,0,1-3.32,2.39,11.54,11.54,0,0,1-4.62.88H461.07Zm5.76,5.51v11.16h4.23a5.71,5.71,0,0,0,2.27-.41,4.5,4.5,0,0,0,1.64-1.15,4.82,4.82,0,0,0,1-1.76,7.07,7.07,0,0,0,.34-2.27,6,6,0,0,0-1.33-4,4.89,4.89,0,0,0-3.91-1.53Z"/><path class="cls-10" d="M502.92,252.54,512,274.7h-6.27l-1.24-3.24h-8.83l-1.24,3.24h-6.28l9.1-22.16Zm-2.85,7.27-2.48,6.51h4.93Z"/><path class="cls-10" d="M520.33,252.54h10.42a11.37,11.37,0,0,1,4.62.88,9.37,9.37,0,0,1,3.32,2.4,10.27,10.27,0,0,1,2,3.54,13.3,13.3,0,0,1,.68,4.26,13.48,13.48,0,0,1-.68,4.29,10.18,10.18,0,0,1-2,3.52,9.47,9.47,0,0,1-3.32,2.39,11.54,11.54,0,0,1-4.62.88H520.33Zm5.76,5.51v11.16h4.23a5.71,5.71,0,0,0,2.27-.41,4.5,4.5,0,0,0,1.64-1.15,4.82,4.82,0,0,0,1-1.76,7.07,7.07,0,0,0,.34-2.27,6,6,0,0,0-1.33-4,4.89,4.89,0,0,0-3.91-1.53Z"/><path class="cls-10" d="M550.49,252.54h17.24v5.51H556.25v3.18h9.44v5.14h-9.44v2.84h11.48v5.49H550.49Z"/><path class="cls-10" d="M581.86,268.05v.14a1.28,1.28,0,0,0,.23.67,2.41,2.41,0,0,0,.69.65,4.32,4.32,0,0,0,1.18.5,6.55,6.55,0,0,0,1.7.2,4.08,4.08,0,0,0,2.23-.44,1.19,1.19,0,0,0,.62-.93,1.46,1.46,0,0,0-.89-1.22,17,17,0,0,0-2.94-1.19c-.9-.28-1.83-.62-2.8-1a12.76,12.76,0,0,1-2.66-1.43,7.33,7.33,0,0,1-2-2.08,5.23,5.23,0,0,1-.8-2.92,6.21,6.21,0,0,1,.65-2.86,6.38,6.38,0,0,1,1.82-2.16,8.77,8.77,0,0,1,2.77-1.38,12.42,12.42,0,0,1,3.54-.48,12.81,12.81,0,0,1,3.64.5,8.89,8.89,0,0,1,2.91,1.43,7,7,0,0,1,1.93,2.26,6.2,6.2,0,0,1,.7,3v.31h-5.61v-.2a1.85,1.85,0,0,0-.21-.82,2.45,2.45,0,0,0-.65-.77,3.65,3.65,0,0,0-1.08-.55,4.92,4.92,0,0,0-1.51-.21,3.54,3.54,0,0,0-2.1.47,1.28,1.28,0,0,0-.64,1c0,.44.29.81.85,1.11a22,22,0,0,0,2.87,1.14c.76.26,1.64.59,2.62,1a13.88,13.88,0,0,1,2.74,1.47,8.33,8.33,0,0,1,2.16,2.19,5.37,5.37,0,0,1,.88,3.11,5.74,5.74,0,0,1-2.55,4.92,8.88,8.88,0,0,1-2.82,1.25,14.16,14.16,0,0,1-3.55.42,15,15,0,0,1-3.76-.45,9.57,9.57,0,0,1-3-1.32,6.43,6.43,0,0,1-2-2.15,5.71,5.71,0,0,1-.74-2.9v-.25Z"/><path class="cls-11" d="M4.31,284a2.67,2.67,0,0,1,0,3.49,2.35,2.35,0,0,1-1.74.71,2.25,2.25,0,0,1-1.71-.71,2.39,2.39,0,0,1-.68-1.75A2.36,2.36,0,0,1,.84,284a2.37,2.37,0,0,1,1.73-.67,2.44,2.44,0,0,1,1.74.67"/><path class="cls-11" d="M12.85,284a2.64,2.64,0,0,1,0,3.49,2.31,2.31,0,0,1-1.73.71,2.28,2.28,0,0,1-1.72-.71A2.45,2.45,0,0,1,12.85,284"/><path class="cls-11" d="M21.4,284a2.64,2.64,0,0,1,0,3.49,2.33,2.33,0,0,1-1.73.71,2.28,2.28,0,0,1-1.72-.71,2.41,2.41,0,0,1,1.72-4.16,2.42,2.42,0,0,1,1.73.67"/><path class="cls-11" d="M30,284a2.67,2.67,0,0,1,0,3.49,2.35,2.35,0,0,1-1.74.71,2.25,2.25,0,0,1-1.71-.71,2.39,2.39,0,0,1-.68-1.75,2.28,2.28,0,0,1,2.39-2.41A2.44,2.44,0,0,1,30,284"/><path class="cls-11" d="M38.49,284a2.64,2.64,0,0,1,0,3.49,2.31,2.31,0,0,1-1.73.71,2.28,2.28,0,0,1-1.72-.71A2.45,2.45,0,0,1,38.49,284"/><path class="cls-11" d="M47,284a2.67,2.67,0,0,1,0,3.49,2.35,2.35,0,0,1-1.73.71,2.25,2.25,0,0,1-1.72-.71,2.41,2.41,0,0,1,1.72-4.16A2.43,2.43,0,0,1,47,284"/><path class="cls-11" d="M55.56,284a2.64,2.64,0,0,1,0,3.49,2.31,2.31,0,0,1-1.73.71,2.24,2.24,0,0,1-1.71-.71,2.35,2.35,0,0,1-.68-1.75A2.44,2.44,0,0,1,55.56,284"/><path class="cls-11" d="M64.11,284a2.67,2.67,0,0,1,0,3.49,2.31,2.31,0,0,1-1.73.71,2.28,2.28,0,0,1-1.72-.71A2.45,2.45,0,0,1,64.11,284"/><path class="cls-11" d="M72.66,284a2.67,2.67,0,0,1,0,3.49,2.35,2.35,0,0,1-1.73.71,2.25,2.25,0,0,1-1.72-.71,2.41,2.41,0,0,1,1.72-4.16,2.43,2.43,0,0,1,1.73.67"/><path class="cls-11" d="M81.2,284a2.64,2.64,0,0,1,0,3.49,2.31,2.31,0,0,1-1.73.71,2.24,2.24,0,0,1-1.71-.71,2.35,2.35,0,0,1-.68-1.75A2.44,2.44,0,0,1,81.2,284"/><path class="cls-11" d="M89.75,284a2.67,2.67,0,0,1,0,3.49,2.31,2.31,0,0,1-1.73.71,2.28,2.28,0,0,1-1.72-.71A2.45,2.45,0,0,1,89.75,284"/><path class="cls-11" d="M98.3,284a2.67,2.67,0,0,1,0,3.49,2.35,2.35,0,0,1-1.73.71,2.25,2.25,0,0,1-1.72-.71,2.35,2.35,0,0,1-.68-1.75,2.4,2.4,0,0,1,.66-1.74,2.38,2.38,0,0,1,1.74-.67,2.43,2.43,0,0,1,1.73.67"/><path class="cls-11" d="M106.84,284a2.64,2.64,0,0,1,0,3.49,2.31,2.31,0,0,1-1.73.71,2.24,2.24,0,0,1-1.71-.71,2.35,2.35,0,0,1-.68-1.75,2.44,2.44,0,0,1,4.12-1.74"/><path class="cls-11" d="M115.39,284a2.67,2.67,0,0,1,0,3.49,2.31,2.31,0,0,1-1.73.71,2.28,2.28,0,0,1-1.72-.71,2.45,2.45,0,0,1,3.45-3.49"/><path class="cls-11" d="M123.94,284a2.67,2.67,0,0,1,0,3.49,2.35,2.35,0,0,1-1.73.71,2.25,2.25,0,0,1-1.72-.71,2.35,2.35,0,0,1-.68-1.75,2.45,2.45,0,0,1,4.13-1.74"/><path class="cls-11" d="M132.46,284a2.64,2.64,0,0,1,0,3.49,2.31,2.31,0,0,1-1.73.71,2.28,2.28,0,0,1-1.72-.71,2.45,2.45,0,0,1,3.45-3.49"/><path class="cls-11" d="M141,284a2.67,2.67,0,0,1,0,3.49,2.33,2.33,0,0,1-1.73.71,2.26,2.26,0,0,1-1.72-.71,2.34,2.34,0,0,1-.67-1.75,2.39,2.39,0,0,1,.65-1.74,2.36,2.36,0,0,1,1.74-.67A2.42,2.42,0,0,1,141,284"/><path class="cls-11" d="M149.56,284a2.67,2.67,0,0,1,0,3.49,2.35,2.35,0,0,1-1.74.71,2.29,2.29,0,0,1-1.72-.71,2.62,2.62,0,0,1,0-3.49,2.35,2.35,0,0,1,1.73-.67,2.44,2.44,0,0,1,1.74.67"/><path class="cls-11" d="M158.1,284a2.4,2.4,0,0,1,.66,1.74,2.38,2.38,0,0,1-.66,1.75,2.31,2.31,0,0,1-1.73.71,2.26,2.26,0,0,1-1.72-.71A2.45,2.45,0,0,1,158.1,284"/><path class="cls-11" d="M166.65,284a2.67,2.67,0,0,1,0,3.49,2.34,2.34,0,0,1-1.74.71,2.25,2.25,0,0,1-1.71-.71,2.35,2.35,0,0,1-.68-1.75,2.4,2.4,0,0,1,.66-1.74,2.35,2.35,0,0,1,1.73-.67,2.42,2.42,0,0,1,1.74.67"/><path class="cls-11" d="M175.2,284a2.67,2.67,0,0,1,0,3.49,2.35,2.35,0,0,1-1.74.71,2.29,2.29,0,0,1-1.72-.71,2.62,2.62,0,0,1,0-3.49,2.34,2.34,0,0,1,1.73-.67,2.44,2.44,0,0,1,1.74.67"/><path class="cls-11" d="M183.74,284a2.4,2.4,0,0,1,.66,1.74,2.38,2.38,0,0,1-.66,1.75,2.31,2.31,0,0,1-1.73.71,2.26,2.26,0,0,1-1.72-.71,2.45,2.45,0,0,1,3.45-3.49"/><path class="cls-11" d="M192.29,284a2.67,2.67,0,0,1,0,3.49,2.34,2.34,0,0,1-1.74.71,2.25,2.25,0,0,1-1.71-.71,2.41,2.41,0,0,1,1.71-4.16,2.42,2.42,0,0,1,1.74.67"/><path class="cls-11" d="M200.84,284a2.43,2.43,0,0,1,.64,1.74,2.4,2.4,0,0,1-.64,1.75,2.35,2.35,0,0,1-1.74.71,2.28,2.28,0,0,1-1.72-.71,2.62,2.62,0,0,1,0-3.49,2.34,2.34,0,0,1,1.73-.67,2.44,2.44,0,0,1,1.74.67"/><path class="cls-11" d="M209.36,284a2.67,2.67,0,0,1,0,3.49,2.33,2.33,0,0,1-1.73.71,2.28,2.28,0,0,1-1.72-.71,2.39,2.39,0,0,1-.68-1.75,2.28,2.28,0,0,1,2.4-2.41,2.42,2.42,0,0,1,1.73.67"/><path class="cls-11" d="M217.91,284a2.67,2.67,0,0,1,0,3.49,2.35,2.35,0,0,1-1.73.71,2.25,2.25,0,0,1-1.72-.71,2.35,2.35,0,0,1-.68-1.75,2.27,2.27,0,0,1,2.4-2.41,2.43,2.43,0,0,1,1.73.67"/><path class="cls-11" d="M226.45,284a2.64,2.64,0,0,1,0,3.49,2.33,2.33,0,0,1-1.73.71,2.28,2.28,0,0,1-1.72-.71,2.41,2.41,0,0,1,1.72-4.16,2.42,2.42,0,0,1,1.73.67"/><path class="cls-11" d="M235,284a2.67,2.67,0,0,1,0,3.49,2.33,2.33,0,0,1-1.73.71,2.28,2.28,0,0,1-1.72-.71,2.39,2.39,0,0,1-.68-1.75,2.28,2.28,0,0,1,2.4-2.41A2.42,2.42,0,0,1,235,284"/><path class="cls-11" d="M243.55,284a2.67,2.67,0,0,1,0,3.49,2.35,2.35,0,0,1-1.73.71,2.28,2.28,0,0,1-1.73-.71,2.41,2.41,0,0,1,1.73-4.16,2.43,2.43,0,0,1,1.73.67"/><path class="cls-11" d="M252.09,284a2.64,2.64,0,0,1,0,3.49,2.33,2.33,0,0,1-1.73.71,2.28,2.28,0,0,1-1.72-.71,2.41,2.41,0,0,1,1.72-4.16,2.42,2.42,0,0,1,1.73.67"/><path class="cls-11" d="M260.64,284a2.67,2.67,0,0,1,0,3.49,2.33,2.33,0,0,1-1.73.71,2.28,2.28,0,0,1-1.72-.71,2.39,2.39,0,0,1-.68-1.75,2.28,2.28,0,0,1,2.4-2.41,2.42,2.42,0,0,1,1.73.67"/><path class="cls-11" d="M269.19,284a2.67,2.67,0,0,1,0,3.49,2.35,2.35,0,0,1-1.73.71,2.28,2.28,0,0,1-1.73-.71,2.41,2.41,0,0,1,1.73-4.16,2.43,2.43,0,0,1,1.73.67"/><path class="cls-11" d="M277.73,284a2.64,2.64,0,0,1,0,3.49,2.33,2.33,0,0,1-1.73.71,2.28,2.28,0,0,1-1.72-.71A2.41,2.41,0,0,1,276,283.3a2.42,2.42,0,0,1,1.73.67"/><path class="cls-11" d="M286.28,284a2.67,2.67,0,0,1,0,3.49,2.35,2.35,0,0,1-1.73.71,2.26,2.26,0,0,1-1.72-.71,2.39,2.39,0,0,1-.68-1.75,2.28,2.28,0,0,1,2.4-2.41,2.43,2.43,0,0,1,1.73.67"/><path class="cls-11" d="M294.81,284a2.67,2.67,0,0,1,0,3.49,2.35,2.35,0,0,1-1.74.71,2.28,2.28,0,0,1-1.72-.71,2.62,2.62,0,0,1,0-3.49,2.34,2.34,0,0,1,1.73-.67,2.44,2.44,0,0,1,1.74.67"/><path class="cls-11" d="M303.35,284a2.67,2.67,0,0,1,0,3.49,2.33,2.33,0,0,1-1.73.71,2.26,2.26,0,0,1-1.72-.71,2.41,2.41,0,0,1,1.72-4.16,2.42,2.42,0,0,1,1.73.67"/><path class="cls-11" d="M311.9,284a2.67,2.67,0,0,1,0,3.49,2.35,2.35,0,0,1-1.74.71,2.25,2.25,0,0,1-1.71-.71,2.41,2.41,0,0,1,1.71-4.16,2.44,2.44,0,0,1,1.74.67"/><path class="cls-11" d="M320.45,284a2.67,2.67,0,0,1,0,3.49,2.35,2.35,0,0,1-1.74.71,2.28,2.28,0,0,1-1.72-.71,2.62,2.62,0,0,1,0-3.49,2.34,2.34,0,0,1,1.73-.67,2.44,2.44,0,0,1,1.74.67"/><path class="cls-11" d="M329,284a2.67,2.67,0,0,1,0,3.49,2.35,2.35,0,0,1-1.73.71,2.25,2.25,0,0,1-1.72-.71,2.41,2.41,0,0,1,1.72-4.16A2.43,2.43,0,0,1,329,284"/><path class="cls-11" d="M337.54,284a2.67,2.67,0,0,1,0,3.49,2.35,2.35,0,0,1-1.73.71,2.25,2.25,0,0,1-1.72-.71,2.39,2.39,0,0,1-.68-1.75,2.28,2.28,0,0,1,2.4-2.41,2.43,2.43,0,0,1,1.73.67"/><path class="cls-11" d="M346.09,284a2.7,2.7,0,0,1,0,3.49,2.35,2.35,0,0,1-1.74.71,2.28,2.28,0,0,1-1.72-.71,2.41,2.41,0,0,1,1.72-4.16,2.44,2.44,0,0,1,1.74.67"/><path class="cls-11" d="M354.63,284a2.67,2.67,0,0,1,0,3.49,2.35,2.35,0,0,1-1.73.71,2.25,2.25,0,0,1-1.72-.71,2.41,2.41,0,0,1,1.72-4.16,2.43,2.43,0,0,1,1.73.67"/><path class="cls-11" d="M363.17,284a2.64,2.64,0,0,1,0,3.49,2.31,2.31,0,0,1-1.73.71,2.28,2.28,0,0,1-1.72-.71,2.38,2.38,0,0,1-.67-1.75,2.44,2.44,0,0,1,.65-1.74,2.58,2.58,0,0,1,3.47,0"/><path class="cls-11" d="M371.72,284a2.67,2.67,0,0,1,0,3.49,2.31,2.31,0,0,1-1.73.71,2.24,2.24,0,0,1-1.71-.71,2.35,2.35,0,0,1-.68-1.75,2.44,2.44,0,0,1,4.12-1.74"/><path class="cls-11" d="M380.25,284a2.67,2.67,0,0,1,0,3.49,2.35,2.35,0,0,1-1.73.71,2.25,2.25,0,0,1-1.72-.71,2.41,2.41,0,0,1,1.72-4.16,2.43,2.43,0,0,1,1.73.67"/><path class="cls-11" d="M388.79,284a2.64,2.64,0,0,1,0,3.49,2.45,2.45,0,0,1-3.45,0,2.42,2.42,0,0,1-.67-1.75,2.44,2.44,0,0,1,4.12-1.74"/><path class="cls-11" d="M397.34,284a2.46,2.46,0,0,1-1.73,4.2,2.28,2.28,0,0,1-1.72-.71,2.38,2.38,0,0,1-.67-1.75,2.27,2.27,0,0,1,2.39-2.41,2.42,2.42,0,0,1,1.73.67"/><path class="cls-11" d="M405.89,284a2.67,2.67,0,0,1,0,3.49,2.35,2.35,0,0,1-1.74.71,2.28,2.28,0,0,1-1.72-.71,2.62,2.62,0,0,1,0-3.49,2.35,2.35,0,0,1,1.73-.67,2.44,2.44,0,0,1,1.74.67"/><path class="cls-11" d="M414.43,284a2.64,2.64,0,0,1,0,3.49,2.45,2.45,0,0,1-3.45,0,2.42,2.42,0,0,1-.67-1.75,2.44,2.44,0,0,1,4.12-1.74"/><path class="cls-11" d="M423,284a2.46,2.46,0,0,1-1.73,4.2,2.28,2.28,0,0,1-1.72-.71,2.38,2.38,0,0,1-.67-1.75,2.27,2.27,0,0,1,2.39-2.41A2.42,2.42,0,0,1,423,284"/><path class="cls-11" d="M431.53,284a2.67,2.67,0,0,1,0,3.49,2.35,2.35,0,0,1-1.74.71,2.28,2.28,0,0,1-1.72-.71,2.62,2.62,0,0,1,0-3.49,2.34,2.34,0,0,1,1.73-.67,2.44,2.44,0,0,1,1.74.67"/><path class="cls-11" d="M440.07,284a2.64,2.64,0,0,1,0,3.49,2.31,2.31,0,0,1-1.73.71,2.28,2.28,0,0,1-1.72-.71,2.45,2.45,0,0,1,3.45-3.49"/><path class="cls-11" d="M448.62,284a2.67,2.67,0,0,1,0,3.49,2.33,2.33,0,0,1-1.73.71,2.26,2.26,0,0,1-1.72-.71,2.41,2.41,0,0,1,1.72-4.16,2.42,2.42,0,0,1,1.73.67"/><path class="cls-11" d="M457.14,284a2.64,2.64,0,0,1,0,3.49,2.31,2.31,0,0,1-1.73.71,2.28,2.28,0,0,1-1.72-.71,2.45,2.45,0,0,1,3.45-3.49"/><path class="cls-11" d="M465.69,284a2.46,2.46,0,0,1-1.73,4.2,2.28,2.28,0,0,1-1.72-.71,2.39,2.39,0,0,1-.68-1.75,2.28,2.28,0,0,1,2.4-2.41,2.42,2.42,0,0,1,1.73.67"/><path class="cls-11" d="M474.24,284a2.67,2.67,0,0,1,0,3.49,2.35,2.35,0,0,1-1.73.71,2.25,2.25,0,0,1-1.72-.71,2.35,2.35,0,0,1-.68-1.75,2.27,2.27,0,0,1,2.4-2.41,2.43,2.43,0,0,1,1.73.67"/><path class="cls-11" d="M482.78,284a2.64,2.64,0,0,1,0,3.49,2.33,2.33,0,0,1-1.73.71,2.28,2.28,0,0,1-1.72-.71,2.41,2.41,0,0,1,1.72-4.16,2.42,2.42,0,0,1,1.73.67"/><path class="cls-11" d="M491.33,284a2.67,2.67,0,0,1,0,3.49,2.33,2.33,0,0,1-1.73.71,2.24,2.24,0,0,1-1.71-.71,2.32,2.32,0,0,1-.69-1.75,2.28,2.28,0,0,1,2.4-2.41,2.42,2.42,0,0,1,1.73.67"/><path class="cls-11" d="M499.88,284a2.67,2.67,0,0,1,0,3.49,2.35,2.35,0,0,1-1.73.71,2.25,2.25,0,0,1-1.72-.71,2.4,2.4,0,0,1,1.72-4.16,2.43,2.43,0,0,1,1.73.67"/><path class="cls-11" d="M508.42,284a2.64,2.64,0,0,1,0,3.49,2.33,2.33,0,0,1-1.73.71,2.28,2.28,0,0,1-1.72-.71,2.38,2.38,0,0,1-.67-1.75,2.27,2.27,0,0,1,2.39-2.41,2.42,2.42,0,0,1,1.73.67"/><path class="cls-11" d="M517,284a2.67,2.67,0,0,1,0,3.49,2.33,2.33,0,0,1-1.73.71,2.26,2.26,0,0,1-1.72-.71,2.61,2.61,0,0,1,0-3.49,2.38,2.38,0,0,1,1.74-.67A2.42,2.42,0,0,1,517,284"/><path class="cls-11" d="M525.52,284a2.67,2.67,0,0,1,0,3.49,2.35,2.35,0,0,1-1.73.71,2.3,2.3,0,0,1-1.73-.71,2.42,2.42,0,0,1-.67-1.75,2.27,2.27,0,0,1,2.4-2.41,2.43,2.43,0,0,1,1.73.67"/><path class="cls-11" d="M534.06,284a2.64,2.64,0,0,1,0,3.49,2.33,2.33,0,0,1-1.73.71,2.28,2.28,0,0,1-1.72-.71,2.38,2.38,0,0,1-.67-1.75,2.27,2.27,0,0,1,2.39-2.41,2.42,2.42,0,0,1,1.73.67"/><path class="cls-11" d="M542.59,284a2.67,2.67,0,0,1,0,3.49,2.33,2.33,0,0,1-1.73.71,2.26,2.26,0,0,1-1.72-.71,2.41,2.41,0,0,1,1.72-4.16,2.42,2.42,0,0,1,1.73.67"/><path class="cls-11" d="M551.14,284a2.67,2.67,0,0,1,0,3.49,2.35,2.35,0,0,1-1.74.71,2.29,2.29,0,0,1-1.72-.71,2.41,2.41,0,0,1,1.72-4.16,2.44,2.44,0,0,1,1.74.67"/><path class="cls-11" d="M559.68,284a2.67,2.67,0,0,1,0,3.49,2.35,2.35,0,0,1-1.73.71,2.26,2.26,0,0,1-1.72-.71,2.34,2.34,0,0,1-.67-1.75A2.27,2.27,0,0,1,558,283.3a2.43,2.43,0,0,1,1.73.67"/><path class="cls-11" d="M568.23,284a2.67,2.67,0,0,1,0,3.49,2.35,2.35,0,0,1-1.73.71,2.26,2.26,0,0,1-1.72-.71,2.39,2.39,0,0,1-.68-1.75,2.28,2.28,0,0,1,2.4-2.41,2.43,2.43,0,0,1,1.73.67"/><path class="cls-11" d="M576.78,284a2.7,2.7,0,0,1,0,3.49,2.35,2.35,0,0,1-1.74.71,2.29,2.29,0,0,1-1.72-.71A2.41,2.41,0,0,1,575,283.3a2.44,2.44,0,0,1,1.74.67"/><path class="cls-11" d="M585.32,284a2.67,2.67,0,0,1,0,3.49,2.35,2.35,0,0,1-1.73.71,2.26,2.26,0,0,1-1.72-.71,2.41,2.41,0,0,1,1.72-4.16,2.43,2.43,0,0,1,1.73.67"/><path class="cls-11" d="M593.87,284a2.67,2.67,0,0,1,0,3.49,2.33,2.33,0,0,1-1.73.71,2.26,2.26,0,0,1-1.72-.71,2.61,2.61,0,0,1,0-3.49,2.36,2.36,0,0,1,1.74-.67,2.42,2.42,0,0,1,1.73.67"/><polygon class="cls-1" points="485.72 228.99 487.35 228.99 486.39 227.4 485.72 228.99"/><path class="cls-12" d="M47.43,207.09a10.37,10.37,0,0,0,4.8-1.05Q49.8,206.55,47.43,207.09Z"/><path class="cls-11" d="M222.77,229V197.8c-9.31-.37-18.66-.6-28-.69V229Z"/><path class="cls-11" d="M259.37,229H285.1V202.65c-16-1.9-32.53-3.3-49.29-4.22Z"/><path class="cls-11" d="M315.87,224.81a57.88,57.88,0,0,0,52.52,0,48,48,0,0,0,10.42-7.54c-15.55-1.83-32.05-4.39-49.59-7.81-10.68-2.09-21.86-3.9-33.37-5.45.55,1.14,1.14,2.26,1.78,3.36A46.2,46.2,0,0,0,315.87,224.81Z"/><path class="cls-11" d="M452.6,229h33.12l.67-1.59L481.27,219c-10,1.05-20.81,1.75-32.38,2Z"/><path class="cls-11" d="M429.93,229v-8.06c-9.76-.21-20-.72-30.78-1.61V229Z"/><path class="cls-11" d="M46.91,230.71a56.15,56.15,0,0,0,19.76-3.31A30.88,30.88,0,0,0,80.8,217.25a25.94,25.94,0,0,0,5.13-14.18c-30.88,4-57.87,9.91-77.7,17.66a76.69,76.69,0,0,0,13.82,5.94A80.74,80.74,0,0,0,46.91,230.71Z"/><path class="cls-11" d="M111.5,224.81a54.37,54.37,0,0,0,26.26,6.3,54.43,54.43,0,0,0,26.26-6.3,46.23,46.23,0,0,0,22.7-27.74c-11.44,0-22.81.21-34,.63a19.43,19.43,0,0,1-4.87,4.83,16.82,16.82,0,0,1-9.68,3,17.41,17.41,0,0,1-9.88-3,20.71,20.71,0,0,1-3.77-3.22c-11.6.83-22.89,1.91-33.74,3.22a48.11,48.11,0,0,0,2.49,4.91A46.26,46.26,0,0,0,111.5,224.81Z"/><path class="cls-11" d="M487.35,229h29.94l4.77-13.13h34.88L561.58,229h32.76l-15.8-38.87c-16.46,9.69-44.76,22-88.13,27.75l-4,9.53Z"/></svg>